<svg width="22" height="23" viewBox="0 0 22 23" fill="none" xmlns="http://www.w3.org/2000/svg">
<path d="M0.799805 23L9.4718 0.600006H12.9918L21.5998 23H17.9198L12.7998 9.49601C12.7358 9.34667 12.6078 8.98401 12.4158 8.40801C12.2451 7.83201 12.0425 7.19201 11.8078 6.48801C11.5731 5.78401 11.3598 5.14401 11.1678 4.56801C10.9758 3.97067 10.8478 3.58667 10.7838 3.41601L11.5198 3.38401C11.3918 3.74667 11.2318 4.20534 11.0398 4.76001C10.8691 5.31467 10.6771 5.90134 10.4638 6.52001C10.2718 7.13867 10.0798 7.72534 9.8878 8.28001C9.6958 8.81334 9.5358 9.26134 9.4078 9.62401L4.3198 23H0.799805ZM4.63981 17.432L5.9198 14.104H16.0958L17.5678 17.432H4.63981Z" fill="#FF0303"/>
</svg>
